<svg width="200" height="200" viewBox="0 0 200 200" fill="none" xmlns="http://www.w3.org/2000/svg">
<g clip-path="url(#clip0_9_11)">
<path d="M131.641 0H68.3594C30.6055 0 0 30.6055 0 68.3594V131.641C0 169.394 30.6055 200 68.3594 200H131.641C169.394 200 200 169.394 200 131.641V68.3594C200 30.6055 169.394 0 131.641 0Z" fill="#5856D6"/>
<path d="M60.5485 65.1609V134.961H46.5485V65.1609H60.5485ZM134.08 134.961H120.08L88.3805 87.0609V134.961H74.3805V65.0609H88.3805L120.08 113.061V65.0609H134.08V134.961Z" fill="white"/>
<path d="M150.781 134.961C156.175 134.961 160.547 130.589 160.547 125.195C160.547 119.802 156.175 115.43 150.781 115.43C145.388 115.43 141.016 119.802 141.016 125.195C141.016 130.589 145.388 134.961 150.781 134.961Z" fill="white"/>
</g>
<defs>
<clipPath id="clip0_9_11">
<rect width="200" height="200" fill="white"/>
</clipPath>
</defs>
</svg>
